<?xml version="1.0" encoding="UTF-8"?>
<svg width="216.17mm" height="155.2mm" version="1.1" viewBox="0 0 765.94033 549.90588" xmlns="http://www.w3.org/2000/svg">
 <defs>
  <clipPath id="a">
   <rect x="304.52" y="347.14" width="765.94" height="549.91" ry="0" fill="#fff"/>
  </clipPath>
 </defs>
 <g transform="translate(-304.52 -347.14)">
  <g clip-path="url(#a)" fill-rule="evenodd">
   <rect x="4.0406" y="308.89" width="1068.7" height="737.41" fill="#f0f4c3"/>
   <rect x="4.0406" y="411.46" width="1068.7" height="36.025" fill="#f9fbe7"/>
   <rect x="4.0406" y="985.69" width="1067.9" height="60.609" fill="#e6ee9c"/>
   <rect x="868.23" y="494.76" width="179.81" height="250.52" ry="10.714" fill="#f9fbe7"/>
   <rect x="660.64" y="494.76" width="179.81" height="250.52" ry="10.714" fill="#f9fbe7"/>
   <path d="m886.43 562.36s12.857 96.786 12.5 94.286c-0.35714-2.5-31.429-98.214-31.429-98.214z" fill="#558b2f"/>
   <path d="m771.33 540.58-9.2969 22.633 6.3804 72.12-53.387-39.661 0.90812-19.373-5.146 11.503s-29.06-6.6595-27.244-5.146c1.8162 1.5135 12.108 6.0541 12.108 6.0541l-12.411 3.9352s9.9893-0.90812 8.1731 0-10.897 5.7514-10.897 5.7514l12.108-0.60541-7.8704 4.5406 18.465 2.7244 66.595 56.606 12.714-1.5135 7.8704-24.822z" fill="#ffb380"/>
   <path d="m913.53 707.83-0.91347 126.88 3.4244 24.806 14.434 106.57-21.711 2.953-30.964-96.186-7.6341-13.886-0.85852-18.021-15.762-47.89-18.345-84.67z" fill="#424242"/>
   <path d="m795.96 710.6-8.8128 76.828 1.4413 68.491c2.073 11.914 6.005 20.102 11.502 25.152l61.142 92.005 18.161-3.3096-36.699-106.3-6.8868-6.2213 16.542-71.833-5.3018-31.679 0.81235-44.702z" fill="#212121"/>
   <path d="m740.35 486.97c1.2272 5.2456 2.6406 10.598 4.7915 16.371 1.5012 1.4909 5.3152 1.5729 5.3905 2.9947 0.22127 5.9245 2.2275 12.598 3.1944 16.571 3.0606-0.20029 4.0575-2.4643 5.7898-3.9929l4.7949 4.6738 1.86 0.80882 0.67231 2.4589c4.243 0.66977 4.6327 4.1327 6.5986 6.7146 9.9228-2.7166 15.757-11.96 14.993-16.561l1.3729 10.08-18.712 15.583 0.19964 15.772 17.17 9.583 31.744-9.9824 19.565-26.753 7.9231-19.295c-20.363-1.3477-29.274-14.047-36.872-22.032l-10.581-16.171-8.9841-14.574-13.975-10.781s-18.168 2.9947-18.966 3.394c-0.79859 0.39929-14.375 9.1838-14.375 9.1838l-4.9912 13.376z" fill="#ffb380"/>
   <path d="m750 502.68c-0.98545 0.22978-1.6894-0.10345-2.3999-0.42352 1.4312-2.3509 2.752-4.771 4.9057-6.6704 2.8382-0.87852 5.7903-0.7323 8.7174-0.81174-4.744 1.0013-9.3148 2.3684-11.223 7.9056z" fill="#212121"/>
   <path d="m753.36 505.77c1.6605-2.8778 3.9738-4.4151 6.2742-6.493 0.53447 2.9361 0.3353 5.7606-2.9673 8.1128-1.4665-0.23828-2.4287-1.0454-3.3069-1.6198z" fill="#fff"/>
   <ellipse cx="755.75" cy="505.36" rx="1.6888" ry="1.374" fill="#212121"/>
   <path d="m753.26 505.94c1.6934-2.1812 3.7317-4.2056 6.1256-6.0684 1.082 3.3166-0.62269 5.6199-2.8624 7.7286 2.7439-2.3969 5.0685-5.1707 3.9355-9.8523-2.7569 2.5918-5.5563 5.167-7.1986 8.1921z" fill="#212121"/>
   <path d="m783.64 494.75 0.42352 8.8938c-6.5998-10.855-14.294-20.25-23.152-28.093l-22.929 8.2898c-7.3552-3.2327-14.243-6.9324-20.47-11.294l9.3174-4.7998h-4.094c10.194-8.561 20.667-16.642 33.458-20.752 0 0-8.188-4.3763-7.6233-4.2352 15.247-2.3999 25.834 1.1294 25.834 1.1294 1.6285-2.5391 4.3988-4.6214 7.3409-6.6351l-1.2706 2.5411 13.835-0.42352-10.447 3.3881c6.8283 1.2601 14.396 10.335 18.07 18.211l-2.5411 0.56469c8.3932 12.015 14.038 25.404 21.035 38.116h-11.294l-18.776-14.823c-1.51-1.2943-5.8534-7.6904-9.9644-1.9371 0 0.56469 3.247 11.858 3.247 11.858z" fill="#333"/>
   <path d="m787.83 485.74c-1.9999 0.0461-4.5254-2.5171-4.8084-4.8483 1.7852-2.5221 5.2145-6.63 10.314-3.0573 4.3296 5.8852 4.4573 12.919 2.8234 16.941-0.18193 1.0721-4.7852 5.15-6.9174 1.9764 1.3039-1.8297-0.1676-5.4992-1.4117-11.011z" fill="#f95"/>
   <path d="m785.32 482.62c-0.68838-2.2529 3.6176-4.7812 6.788-3.1944 2.1845 1.4411 3.9807 10.016 3.1944 12.977 0.44741 1.32-2.84 0.10731-4.4921 2.1462 0.34939-3.2942-1.3476-7.5367-1.3476-7.5367l3.6436 1.3476-0.19964-1.3476c-2.6458-1.3325-5.8969-1.9841-7.5866-4.3922z" fill="#ffb380"/>
   <path d="m764.28 523.48c0.21176-0.42351 1.0588-1.9058 1.0588-1.9058 4.3641-1.1672 4.948-3.266 7.5442-5.7885-0.6269 2.6256-1.1427 5.6975-2.9851 8.1445l-3.0768 2.9379-0.77645-2.3999z" fill="#d35f5f"/>
   <path d="m721.18 599.26 21.464 14.653 24.102 13.348-6.2978-64.223s10.275-27.903 9.972-22.757c-0.3027 5.146 36.091 107.98 36.091 107.98-2.0064 16.809-20.879 12.233-37.302 14.617l-51.348-40.654z" fill="#33691e"/>
   <path d="m789.83 714.92c61.086 23.961 79.757 2.3664 125.29-2.6274-12.432-70.863-33.016-114.76-49.015-185.9-1.3426-5.9693 8.4186-4.2734 7.1482-10.658l-41.111-8.6424c-2.004 13.457-2.1548 18.868-23.315 30.155-10.094-0.57198-18.719-2.3671-23.13-7.6747l-16.056 11.339c-3.993 86.189 27.773 120.21 20.188 174.01z" fill="#558b2f"/>
   <path d="m858.51 519.67c3.5594-0.29308 11.453-4.5266 11.453-4.5266l10.113 0.95907 12.006 6.5368c3.9096 10.488 5.9229 19.369 7.6837 28.035-0.15007 6.8242-0.4788 13.549-2.7179 19.216-2.1648 5.212-6.229 8.4921-12.081 9.9535-5.748-1.312-8.3252-3.7-11.591-5.8543l-6.4863-9.1414z" fill="#33691e"/>
   <path d="m856.74 419.75 23.36-23.739 4.4194-0.3788-8.7126 16.794-15.91 11.869z" fill="#8bc34a"/>
   <path d="m889.39 560.79c-3.5453 3.9152-3.1259 5.0901-7.4966 6.3844-24.761 3.2831-23.687-66.258-34.882-101.22-1.8032 1.5945-10.734-7.2764-8.5692-15.286-1.1086-4.8347-2.8974-10.62-1.6552-16.133 1.8588-4.446 4.0308-4.4226 6.5234 0.17217 1.3118 4.075 1.088 7.9962 1.4938 11.98 0.70963-1.0135 2.8652-0.91199 4.9525-3.3516 1.3193-3.049 1.7894-7.4085 2.2393-11.799l4.2957-6.3992c-2.143-1.2384-4.4702-1.5656-6.8661-1.5531l-2.134 6.9041c-2.0234 0.70072-3.862 0.11984-5.4661-2.0862l3.153-7.4754c1.5152-1.5911 3.0551-3.1665 5.5145-4.161 3.4543 0.2619 6.7543 0.74291 9.6278 1.8296 0.91449 0.79342 1.8203 1.6731 2.771 2.105l1.2663 2.7238c-1.1952 2.4633-1.5325 4.4348-1.7911 6.3613l1.4658 6.4951-0.54545 22.742c7.0366 31.273 20.71 52.611 29.997 82.743-0.46985 7.1596-0.73213 13.944-3.8944 19.021z" fill="#ffb380"/>
   <path d="m881.31 966.73-23.774 2.4708-5.8436 9.7507c-7.6405 1.4664-32.837 3.8738-39.394 5.9165-3.0693 0.95606-3.8684 13.626-3.8684 13.626 21.494 6.6153 58.025-0.8254 78.091-5.827 1.8745-6.3572-2.6681-16.781-5.2108-25.937z" fill="#784421"/>
   <path d="m886.24 992.56 1.8299 5.9772c-25.916 4.5377-52.478 5.8394-79.31 5.7874l-0.30134-5.9582c27.145 0.8256 52.478-2.7897 77.781-5.8064z" fill="#502d16"/>
   <path d="m930.5 963.35-23.613 3.0346-5.3959 9.8993c-7.5586 1.6484-32.594 4.653-39.045 6.8527-3.02 1.0296-3.2521 13.732-3.2521 13.732 20.171 5.6887 56.869 0.59496 77.663-7.6764 1.8658-4.9615-2.7649-15.878-6.3569-25.843z" fill="#a05a2c"/>
   <path d="m936.57 989.1 2.0927 5.9406c-25.658 5.1544-52.104 7.0844-78.881 7.6656l-0.51799-6.4009c26.341 4e-3 51.819-3.6358 77.306-7.2053z" fill="#784421"/>
   <path d="m681.89 572.17c4.0379-9.4645 11.834-17.307 22.1-16.815l21.536 25.308c-6.9069 2.7174-12.414 9.7578-14.748 17.556z" fill="#ccc"/>
   <path d="m683.43 569.1 26.52 28.826c-7.9973 1.6218-14.909 7.4321-20.371 18.833l-25.752-30.748c5.1777-12.407 11.48-19.2 19.602-16.911z" fill="#e6e6e6" stroke="#e6e6e6" stroke-width="1.0762px"/>
   <path d="m785.39 529.73c7.1536 6.1544 15.212 7.1798 23.36 7.7024 12.382-5.9032 22.529-13.85 23.234-30.431h4.0406c-1.4933 17.505-9.7323 27.683-26.895 33.84-9.217-0.72468-15.954 1.8201-27.4-8.46z" fill="#33691e"/>
   <rect x="32.325" y="494.76" width="179.81" height="250.52" ry="10.714" fill="#f9fbe7"/>
   <rect x="242.44" y="494.76" width="179.81" height="250.52" ry="10.714" fill="#f9fbe7"/>
   <rect x="452.55" y="494.76" width="179.81" height="250.52" ry="10.714" fill="#f9fbe7"/>
   <rect x="4.0406" y="337.17" width="1068.7" height="16.162" fill="#e6ee9c"/>
   <path d="m899.29 354.15c-15.281 23.907-16.313 57.328-47.143 71.071l2.1429 5.7143c32.074-13.685 39.06-48.498 54.643-76.071z" fill="#aed581"/>
   <circle cx="852.29" cy="427.89" r="5.237" fill="#7cb342"/>
   <rect x="897.5" y="334.86" width="13.214" height="20.714" ry="2.8571" fill="#8bc34a"/>
   <path d="m553.61 353.59c4.635 1.2627-4.232 50.003-6.0609 50.003 0 0-12.214 0.36497-10.859 0.25254 3.279-0.27201 13.92-47.989 7.5761-50.255z" fill="#9ccc65"/>
   <rect x="543.21" y="334.86" width="13.214" height="20.714" ry="2.8571" fill="#8bc34a"/>
   <path d="m510.32 437.94c0.75761-2.2728 26.264-34.598 26.264-34.598l12.627-0.50508-27.022 35.103z" fill="#7cb342"/>
   <circle transform="scale(-1,1)" cx="-515.57" cy="438.49" r="5.237" fill="#8bc34a"/>
   <rect transform="scale(-1,1)" x="-566.43" y="433.26" width="51.786" height="10.357" ry="2.8571" fill="#8bc34a"/>
   <path d="m570.17 437.94c-0.75761-2.2728-21.592-34.977-21.592-34.977l-12.248 0.25254 21.971 34.724z" fill="#8bc34a"/>
   <circle transform="scale(-1,1)" cx="-565.09" cy="438.49" r="5.237" fill="#7cb342"/>
   <path d="m241.47 353.59c4.635 1.2627-4.232 50.003-6.0609 50.003 0 0-12.214 0.36497-10.859 0.25254 3.279-0.27201 13.92-47.989 7.5761-50.255z" fill="#9ccc65"/>
   <rect x="231.08" y="334.86" width="13.214" height="20.714" ry="2.8571" fill="#8bc34a"/>
   <path d="m198.18 437.94c0.75761-2.2728 26.264-34.598 26.264-34.598l12.627-0.50508-27.022 35.103z" fill="#7cb342"/>
   <circle transform="scale(-1,1)" cx="-203.43" cy="438.49" r="5.237" fill="#8bc34a"/>
   <rect transform="scale(-1,1)" x="-254.29" y="433.26" width="51.786" height="10.357" ry="2.8571" fill="#8bc34a"/>
   <path d="m258.03 437.94c-0.75761-2.2728-21.592-34.977-21.592-34.977l-12.248 0.25254 21.971 34.724z" fill="#8bc34a"/>
   <circle transform="scale(-1,1)" cx="-252.96" cy="438.49" r="5.237" fill="#7cb342"/>
  </g>
 </g>
</svg>
