<?xml version="1.0" encoding="UTF-8"?>
<svg enable-background="new 0 0 1920 594.9" version="1.1" viewBox="0 0 1920 594.9" xml:space="preserve" xmlns="http://www.w3.org/2000/svg" xmlns:xlink="http://www.w3.org/1999/xlink">
<style type="text/css">
	.st0{opacity:0.2;}
	.st1{fill:#FFFFFF;}
	.st2{fill:#FFFFFF;stroke:#363F46;stroke-miterlimit:10;}
	.st3{opacity:0.1;}
	.st4{fill:#9E1F63;}
	.st5{opacity:0.2;clip-path:url(#c);}
	.st6{fill:none;stroke:#BFA130;stroke-miterlimit:10;}
	.st7{fill:#BE1E2D;}
	.st8{fill:#673AB7;}
	.st9{fill:#8BC34A;}
	.st10{fill:#00FFFF;}
	.st11{fill:#6889FF;}
	.st12{fill:#3F51B5;}
	.st13{fill:#FF5177;}
	.st14{fill:#E51C23;}
	.st15{fill:#259B24;}
	.st16{fill:none;stroke:#363F46;stroke-miterlimit:10;}
	.st17{fill:#FF9800;}
	.st18{fill:#F1C9A5;}
	.st19{opacity:0.1;fill:#DDAC8C;}
	.st20{fill:#388EBF;}
	.st21{fill:#2E150B;}
	.st22{fill:#293D86;}
	.st23{fill:#3D1C0F;}
	.st24{fill:#FF97AD;}
	.st25{fill:#6E6D6D;}
	.st26{fill:#D4D3D3;}
	.st27{fill:#E6E7E8;}
	.st28{fill:#BCBEC0;}
</style>
		<g class="st0">
				<rect class="st1" transform="matrix(-1 4.486e-11 -4.486e-11 -1 1825.7 342.91)" x="888.2" y="146.8" width="49.3" height="49.3"/>
				<rect class="st1" transform="matrix(-1 4.5048e-11 -4.5048e-11 -1 927.53 288.35)" x="452.4" y="132.8" width="22.7" height="22.7"/>
			<circle class="st1" cx="814.8" cy="276.3" r="31.7"/>
			<circle class="st1" cx="47.4" cy="67.7" r="18.7"/>
			<circle class="st1" cx="494.8" cy="49.9" r="22.1"/>
			<circle class="st1" cx="466.2" cy="253.3" r="13"/>
			<ellipse class="st1" cx="553.3" cy="198" rx="27.5" ry="16.6"/>
			<polygon class="st1" points="873.8 42.8 893.5 76.9 873.8 111 834.4 111 814.8 76.9 834.4 42.8"/>
			<polygon class="st1" points="938.6 242.8 948.2 259.6 938.6 276.3 919.2 276.3 909.5 259.6 919.2 242.8"/>
			<polygon class="st1" points="948.2 101.4 937.3 79.2 912.8 75.6 930.5 58.4 926.4 34 948.2 45.5 970.1 34 965.9 58.4 983.6 75.6 959.2 79.2"/>
			<line class="st2" x1="588.5" x2="531.1" y1="288.3" y2="230.9"/>
				<rect class="st1" transform="matrix(-1 4.4913e-11 -4.4913e-11 -1 1192.9 221.95)" x="553.3" y="95.7" width="86.3" height="30.5"/>
				<rect class="st1" transform="matrix(-1 4.4805e-11 -4.4805e-11 -1 362.01 496.64)" x="156.4" y="223.7" width="49.3" height="49.3"/>
				<rect class="st1" transform="matrix(-1 4.4928e-11 -4.4928e-11 -1 271.76 362.72)" x="124.5" y="170" width="22.7" height="22.7"/>
			<circle class="st1" cx="311.9" cy="248.3" r="31.7"/>
			<circle class="st1" cx="129.4" cy="102" r="22.1"/>
			<circle class="st1" cx="34.4" cy="273" r="13"/>
			<ellipse class="st1" cx="223.3" cy="67.7" rx="27.5" ry="16.6"/>
			<polygon class="st1" points="371 14.8 390.7 48.9 371 83 331.6 83 311.9 48.9 331.6 14.8"/>
			<polygon class="st1" points="435.7 214.8 445.4 231.5 435.7 248.3 416.4 248.3 406.7 231.5 416.4 214.8"/>
			<polygon class="st1" points="364.9 202.5 353.9 180.3 329.5 176.8 347.2 159.5 343 135.2 364.9 146.7 386.8 135.2 382.6 159.5 400.3 176.8 375.8 180.3"/>
			<line class="st2" x1="85.6" x2="28.3" y1="260.2" y2="202.9"/>
			<line class="st2" x1="389.5" x2="446.9" y1="113" y2="55.6"/>
				<rect class="st1" transform="matrix(-1 4.486e-11 -4.486e-11 -1 534.84 265.63)" x="224.3" y="117.6" width="86.3" height="30.5"/>
		</g>
		<g class="st0">
			<rect class="st1" x="67.5" y="430.9" width="49.3" height="49.3"/>
			<rect class="st1" x="529.9" y="417" width="22.7" height="22.7"/>
			<circle class="st1" cx="190.3" cy="560.5" r="31.7"/>
			<circle class="st1" cx="957.6" cy="351.8" r="18.7"/>
			<circle class="st1" cx="510.2" cy="334" r="22.1"/>
			<circle class="st1" cx="538.8" cy="537.5" r="13"/>
			<ellipse class="st1" cx="451.7" cy="482.1" rx="27.5" ry="16.6"/>
			<polygon class="st1" points="131.2 326.9 111.5 361 131.2 395.1 170.6 395.1 190.3 361 170.6 326.9"/>
			<polygon class="st1" points="66.5 526.9 56.8 543.7 66.5 560.5 85.8 560.5 95.5 543.7 85.8 526.9"/>
			<polygon class="st1" points="56.8 385.5 67.7 363.3 92.2 359.8 74.5 342.5 78.7 318.2 56.8 329.7 34.9 318.2 39.1 342.5 21.4 359.8 45.8 363.3"/>
			<line class="st2" x1="416.6" x2="473.9" y1="572.4" y2="515"/>
			<rect class="st1" x="365.4" y="379.9" width="86.3" height="30.5"/>
			<rect class="st1" x="799.4" y="507.8" width="49.3" height="49.3"/>
			<rect class="st1" x="857.8" y="454.1" width="22.7" height="22.7"/>
			<circle class="st1" cx="693.1" cy="532.5" r="31.7"/>
			<circle class="st1" cx="875.6" cy="386.2" r="22.1"/>
			<circle class="st1" cx="970.6" cy="557.1" r="13"/>
			<ellipse class="st1" cx="781.7" cy="351.8" rx="27.5" ry="16.6"/>
			<polygon class="st1" points="634 298.9 614.4 333 634 367.1 673.4 367.1 693.1 333 673.4 298.9"/>
			<polygon class="st1" points="569.3 498.9 559.6 515.7 569.3 532.5 588.6 532.5 598.3 515.7 588.6 498.9"/>
			<polygon class="st1" points="640.1 486.6 651.1 464.5 675.5 460.9 657.8 443.7 662 419.3 640.1 430.8 618.3 419.3 622.4 443.7 604.7 460.9 629.2 464.5"/>
			<line class="st2" x1="919.4" x2="976.7" y1="544.4" y2="487"/>
			<line class="st2" x1="615.5" x2="558.1" y1="397.1" y2="339.8"/>
			<rect class="st1" x="694.5" y="401.7" width="86.3" height="30.5"/>
		</g>
	<g class="st3">
			<rect class="st1" transform="matrix(-1 4.486e-11 -4.486e-11 -1 3675.4 342.91)" x="1813.1" y="146.8" width="49.3" height="49.3"/>
			<rect class="st1" transform="matrix(-1 4.5048e-11 -4.5048e-11 -1 2777.3 288.35)" x="1377.3" y="132.8" width="22.7" height="22.7"/>
		<circle class="st1" cx="1739.6" cy="276.3" r="31.7"/>
		<circle class="st1" cx="972.3" cy="67.7" r="18.7"/>
		<circle class="st1" cx="1419.7" cy="49.9" r="22.1"/>
		<circle class="st1" cx="1391" cy="253.3" r="13"/>
		<ellipse class="st1" cx="1478.2" cy="198" rx="27.5" ry="16.6"/>
		<polygon class="st1" points="1798.7 42.8 1818.3 76.9 1798.7 111 1759.3 111 1739.6 76.9 1759.3 42.8"/>
		<polygon class="st1" points="1863.4 242.8 1873.1 259.6 1863.4 276.3 1844.1 276.3 1834.4 259.6 1844.1 242.8"/>
		<polygon class="st1" points="1873.1 101.4 1862.2 79.2 1837.7 75.6 1855.4 58.4 1851.2 34 1873.1 45.5 1895 34 1890.8 58.4 1908.5 75.6 1884 79.2"/>
		<line class="st2" x1="1513.3" x2="1455.9" y1="288.3" y2="230.9"/>
			<rect class="st1" transform="matrix(-1 4.4913e-11 -4.4913e-11 -1 3042.6 221.95)" x="1478.2" y="95.7" width="86.3" height="30.5"/>
			<rect class="st1" transform="matrix(-1 4.4805e-11 -4.4805e-11 -1 2211.7 496.64)" x="1081.2" y="223.7" width="49.3" height="49.3"/>
			<rect class="st1" transform="matrix(-1 4.4928e-11 -4.4928e-11 -1 2121.5 362.72)" x="1049.4" y="170" width="22.7" height="22.7"/>
		<circle class="st1" cx="1236.8" cy="248.3" r="31.7"/>
		<circle class="st1" cx="1054.3" cy="102" r="22.1"/>
		<circle class="st1" cx="959.2" cy="273" r="13"/>
		<ellipse class="st1" cx="1148.2" cy="67.7" rx="27.5" ry="16.6"/>
		<polygon class="st1" points="1295.8 14.8 1315.5 48.9 1295.8 83 1256.5 83 1236.8 48.9 1256.5 14.8"/>
		<polygon class="st1" points="1360.6 214.8 1370.3 231.5 1360.6 248.3 1341.2 248.3 1331.6 231.5 1341.2 214.8"/>
		<polygon class="st1" points="1289.7 202.5 1278.8 180.3 1254.3 176.8 1272 159.5 1267.9 135.2 1289.7 146.7 1311.6 135.2 1307.4 159.5 1325.1 176.8 1300.7 180.3"/>
		<line class="st2" x1="1010.5" x2="953.1" y1="260.2" y2="202.9"/>
		<line class="st2" x1="1314.4" x2="1371.7" y1="113" y2="55.6"/>
			<rect class="st1" transform="matrix(-1 4.486e-11 -4.486e-11 -1 2384.6 265.63)" x="1149.1" y="117.6" width="86.3" height="30.5"/>
	</g>
	<g class="st3">
		<rect class="st1" x="992.4" y="430.9" width="49.3" height="49.3"/>
		<rect class="st1" x="1454.8" y="417" width="22.7" height="22.7"/>
		<circle class="st1" cx="1115.1" cy="560.5" r="31.7"/>
		<circle class="st1" cx="1882.5" cy="351.8" r="18.7"/>
		<circle class="st1" cx="1435" cy="334" r="22.1"/>
		<circle class="st1" cx="1463.7" cy="537.5" r="13"/>
		<ellipse class="st1" cx="1376.6" cy="482.1" rx="27.5" ry="16.6"/>
		<polygon class="st1" points="1056.1 326.9 1036.4 361 1056.1 395.1 1095.4 395.1 1115.1 361 1095.4 326.9"/>
		<polygon class="st1" points="991.3 526.9 981.6 543.7 991.3 560.5 1010.7 560.5 1020.4 543.7 1010.7 526.9"/>
		<polygon class="st1" points="981.6 385.5 992.6 363.3 1017 359.8 999.3 342.5 1003.5 318.2 981.6 329.7 959.8 318.2 963.9 342.5 946.2 359.8 970.7 363.3"/>
		<line class="st2" x1="1341.4" x2="1398.8" y1="572.4" y2="515"/>
		<rect class="st1" x="1290.3" y="379.9" width="86.3" height="30.5"/>
		<rect class="st1" x="1724.2" y="507.8" width="49.3" height="49.3"/>
		<rect class="st1" x="1782.6" y="454.1" width="22.7" height="22.7"/>
		<circle class="st1" cx="1617.9" cy="532.5" r="31.7"/>
		<circle class="st1" cx="1800.5" cy="386.2" r="22.1"/>
		<circle class="st1" cx="1895.5" cy="557.1" r="13"/>
		<ellipse class="st1" cx="1706.6" cy="351.8" rx="27.5" ry="16.6"/>
		<polygon class="st1" points="1558.9 298.9 1539.2 333 1558.9 367.1 1598.3 367.1 1617.9 333 1598.3 298.9"/>
		<polygon class="st1" points="1494.1 498.9 1484.4 515.7 1494.1 532.5 1513.5 532.5 1523.2 515.7 1513.5 498.9"/>
		<polygon class="st1" points="1565 486.6 1575.9 464.5 1600.4 460.9 1582.7 443.7 1586.9 419.3 1565 430.8 1543.1 419.3 1547.3 443.7 1529.6 460.9 1554.1 464.5"/>
		<line class="st2" x1="1844.2" x2="1901.6" y1="544.4" y2="487"/>
		<line class="st2" x1="1540.4" x2="1483" y1="397.1" y2="339.8"/>
		<rect class="st1" x="1619.3" y="401.7" width="86.3" height="30.5"/>
	</g>
<rect class="st4" y="-1" width="1920" height="591.8"/>
	<defs>
		<rect id="d" y=".4" width="1920" height="590.3"/>
	</defs>
	<clipPath id="c">
		<use xlink:href="#d"/>
	</clipPath>
	<g class="st5">
			<rect class="st6" x="-221" y=".4" width="590.3" height="590.3"/>
			<line class="st6" x1="-221" x2="369.3" y1="562.6" y2="562.6"/>
			<line class="st6" x1="-221" x2="369.3" y1="534.5" y2="534.5"/>
			<line class="st6" x1="-221" x2="369.3" y1="506.4" y2="506.4"/>
			<line class="st6" x1="-221" x2="369.3" y1="478.3" y2="478.3"/>
			<line class="st6" x1="-221" x2="369.3" y1="450.2" y2="450.2"/>
			<line class="st6" x1="-221" x2="369.3" y1="422.1" y2="422.1"/>
			<line class="st6" x1="-221" x2="369.3" y1="394" y2="394"/>
			<line class="st6" x1="-221" x2="369.3" y1="365.9" y2="365.9"/>
			<line class="st6" x1="-221" x2="369.3" y1="337.8" y2="337.8"/>
			<line class="st6" x1="-221" x2="369.3" y1="309.6" y2="309.6"/>
			<line class="st6" x1="-221" x2="369.3" y1="281.5" y2="281.5"/>
			<line class="st6" x1="-221" x2="369.3" y1="253.4" y2="253.4"/>
			<line class="st6" x1="-221" x2="369.3" y1="225.3" y2="225.3"/>
			<line class="st6" x1="-221" x2="369.3" y1="197.2" y2="197.2"/>
			<line class="st6" x1="-221" x2="369.3" y1="169.1" y2="169.1"/>
			<line class="st6" x1="-221" x2="369.3" y1="141" y2="141"/>
			<line class="st6" x1="-221" x2="369.3" y1="112.9" y2="112.9"/>
			<line class="st6" x1="-221" x2="369.3" y1="84.8" y2="84.8"/>
			<line class="st6" x1="-221" x2="369.3" y1="56.6" y2="56.6"/>
			<line class="st6" x1="-221" x2="369.3" y1="28.5" y2="28.5"/>
			<line class="st6" x1="341.2" x2="341.2" y1=".4" y2="590.8"/>
			<line class="st6" x1="313.1" x2="313.1" y1=".4" y2="590.8"/>
			<line class="st6" x1="285" x2="285" y1=".4" y2="590.8"/>
			<line class="st6" x1="256.9" x2="256.9" y1=".4" y2="590.8"/>
			<line class="st6" x1="228.7" x2="228.7" y1=".4" y2="590.8"/>
			<line class="st6" x1="200.6" x2="200.6" y1=".4" y2="590.8"/>
			<line class="st6" x1="172.5" x2="172.5" y1=".4" y2="590.8"/>
			<line class="st6" x1="144.4" x2="144.4" y1=".4" y2="590.8"/>
			<line class="st6" x1="116.3" x2="116.3" y1=".4" y2="590.8"/>
			<line class="st6" x1="88.2" x2="88.2" y1=".4" y2="590.8"/>
			<line class="st6" x1="60.1" x2="60.1" y1=".4" y2="590.8"/>
			<line class="st6" x1="32" x2="32" y1=".4" y2="590.8"/>
			<line class="st6" x1="3.9" x2="3.9" y1=".4" y2="590.8"/>
			<line class="st6" x1="-24.3" x2="-24.3" y1=".4" y2="590.8"/>
			<line class="st6" x1="-52.4" x2="-52.4" y1=".4" y2="590.8"/>
			<line class="st6" x1="-80.5" x2="-80.5" y1=".4" y2="590.8"/>
			<line class="st6" x1="-108.6" x2="-108.6" y1=".4" y2="590.8"/>
			<line class="st6" x1="-136.7" x2="-136.7" y1=".4" y2="590.8"/>
			<line class="st6" x1="-164.8" x2="-164.8" y1=".4" y2="590.8"/>
			<line class="st6" x1="-192.9" x2="-192.9" y1=".4" y2="590.8"/>
			<rect class="st6" x="369.3" y=".4" width="590.3" height="590.3"/>
			<line class="st6" x1="369.3" x2="959.6" y1="562.6" y2="562.6"/>
			<line class="st6" x1="369.3" x2="959.6" y1="534.5" y2="534.5"/>
			<line class="st6" x1="369.3" x2="959.6" y1="506.4" y2="506.4"/>
			<line class="st6" x1="369.3" x2="959.6" y1="478.3" y2="478.3"/>
			<line class="st6" x1="369.3" x2="959.6" y1="450.2" y2="450.2"/>
			<line class="st6" x1="369.3" x2="959.6" y1="422.1" y2="422.1"/>
			<line class="st6" x1="369.3" x2="959.6" y1="394" y2="394"/>
			<line class="st6" x1="369.3" x2="959.6" y1="365.9" y2="365.9"/>
			<line class="st6" x1="369.3" x2="959.6" y1="337.8" y2="337.8"/>
			<line class="st6" x1="369.3" x2="959.6" y1="309.6" y2="309.6"/>
			<line class="st6" x1="369.3" x2="959.6" y1="281.5" y2="281.5"/>
			<line class="st6" x1="369.3" x2="959.6" y1="253.4" y2="253.4"/>
			<line class="st6" x1="369.3" x2="959.6" y1="225.3" y2="225.3"/>
			<line class="st6" x1="369.3" x2="959.6" y1="197.2" y2="197.2"/>
			<line class="st6" x1="369.3" x2="959.6" y1="169.1" y2="169.1"/>
			<line class="st6" x1="369.3" x2="959.6" y1="141" y2="141"/>
			<line class="st6" x1="369.3" x2="959.6" y1="112.9" y2="112.9"/>
			<line class="st6" x1="369.3" x2="959.6" y1="84.8" y2="84.8"/>
			<line class="st6" x1="369.3" x2="959.6" y1="56.6" y2="56.6"/>
			<line class="st6" x1="369.3" x2="959.6" y1="28.5" y2="28.5"/>
			<line class="st6" x1="931.5" x2="931.5" y1=".4" y2="590.8"/>
			<line class="st6" x1="903.4" x2="903.4" y1=".4" y2="590.8"/>
			<line class="st6" x1="875.3" x2="875.3" y1=".4" y2="590.8"/>
			<line class="st6" x1="847.2" x2="847.2" y1=".4" y2="590.8"/>
			<line class="st6" x1="819.1" x2="819.1" y1=".4" y2="590.8"/>
			<line class="st6" x1="791" x2="791" y1=".4" y2="590.8"/>
			<line class="st6" x1="762.9" x2="762.9" y1=".4" y2="590.8"/>
			<line class="st6" x1="734.7" x2="734.7" y1=".4" y2="590.8"/>
			<line class="st6" x1="706.6" x2="706.6" y1=".4" y2="590.8"/>
			<line class="st6" x1="678.5" x2="678.5" y1=".4" y2="590.8"/>
			<line class="st6" x1="650.4" x2="650.4" y1=".4" y2="590.8"/>
			<line class="st6" x1="622.3" x2="622.3" y1=".4" y2="590.8"/>
			<line class="st6" x1="594.2" x2="594.2" y1=".4" y2="590.8"/>
			<line class="st6" x1="566.1" x2="566.1" y1=".4" y2="590.8"/>
			<line class="st6" x1="538" x2="538" y1=".4" y2="590.8"/>
			<line class="st6" x1="509.9" x2="509.9" y1=".4" y2="590.8"/>
			<line class="st6" x1="481.7" x2="481.7" y1=".4" y2="590.8"/>
			<line class="st6" x1="453.6" x2="453.6" y1=".4" y2="590.8"/>
			<line class="st6" x1="425.5" x2="425.5" y1=".4" y2="590.8"/>
			<line class="st6" x1="397.4" x2="397.4" y1=".4" y2="590.8"/>
			<rect class="st6" x="959.7" y=".4" width="590.3" height="590.3"/>
			<line class="st6" x1="959.7" x2="1550.1" y1="562.6" y2="562.6"/>
			<line class="st6" x1="959.7" x2="1550.1" y1="534.5" y2="534.5"/>
			<line class="st6" x1="959.7" x2="1550.1" y1="506.4" y2="506.4"/>
			<line class="st6" x1="959.7" x2="1550.1" y1="478.3" y2="478.3"/>
			<line class="st6" x1="959.7" x2="1550.1" y1="450.2" y2="450.2"/>
			<line class="st6" x1="959.7" x2="1550.1" y1="422.1" y2="422.1"/>
			<line class="st6" x1="959.7" x2="1550.1" y1="394" y2="394"/>
			<line class="st6" x1="959.7" x2="1550.1" y1="365.9" y2="365.9"/>
			<line class="st6" x1="959.7" x2="1550.1" y1="337.8" y2="337.8"/>
			<line class="st6" x1="959.7" x2="1550.1" y1="309.6" y2="309.6"/>
			<line class="st6" x1="959.7" x2="1550.1" y1="281.5" y2="281.5"/>
			<line class="st6" x1="959.7" x2="1550.1" y1="253.4" y2="253.4"/>
			<line class="st6" x1="959.7" x2="1550.1" y1="225.3" y2="225.3"/>
			<line class="st6" x1="959.7" x2="1550.1" y1="197.2" y2="197.2"/>
			<line class="st6" x1="959.7" x2="1550.1" y1="169.1" y2="169.1"/>
			<line class="st6" x1="959.7" x2="1550.1" y1="141" y2="141"/>
			<line class="st6" x1="959.7" x2="1550.1" y1="112.9" y2="112.9"/>
			<line class="st6" x1="959.7" x2="1550.1" y1="84.8" y2="84.8"/>
			<line class="st6" x1="959.7" x2="1550.1" y1="56.6" y2="56.6"/>
			<line class="st6" x1="959.7" x2="1550.1" y1="28.5" y2="28.5"/>
			<line class="st6" x1="1522" x2="1522" y1=".4" y2="590.8"/>
			<line class="st6" x1="1493.8" x2="1493.8" y1=".4" y2="590.8"/>
			<line class="st6" x1="1465.7" x2="1465.7" y1=".4" y2="590.8"/>
			<line class="st6" x1="1437.6" x2="1437.6" y1=".4" y2="590.8"/>
			<line class="st6" x1="1409.5" x2="1409.5" y1=".4" y2="590.8"/>
			<line class="st6" x1="1381.4" x2="1381.4" y1=".4" y2="590.8"/>
			<line class="st6" x1="1353.3" x2="1353.3" y1=".4" y2="590.8"/>
			<line class="st6" x1="1325.2" x2="1325.2" y1=".4" y2="590.8"/>
			<line class="st6" x1="1297.1" x2="1297.1" y1=".4" y2="590.8"/>
			<line class="st6" x1="1269" x2="1269" y1=".4" y2="590.8"/>
			<line class="st6" x1="1240.8" x2="1240.8" y1=".4" y2="590.8"/>
			<line class="st6" x1="1212.7" x2="1212.7" y1=".4" y2="590.8"/>
			<line class="st6" x1="1184.6" x2="1184.6" y1=".4" y2="590.8"/>
			<line class="st6" x1="1156.5" x2="1156.5" y1=".4" y2="590.8"/>
			<line class="st6" x1="1128.4" x2="1128.4" y1=".4" y2="590.8"/>
			<line class="st6" x1="1100.3" x2="1100.3" y1=".4" y2="590.8"/>
			<line class="st6" x1="1072.2" x2="1072.2" y1=".4" y2="590.8"/>
			<line class="st6" x1="1044.1" x2="1044.1" y1=".4" y2="590.8"/>
			<line class="st6" x1="1016" x2="1016" y1=".4" y2="590.8"/>
			<line class="st6" x1="987.8" x2="987.8" y1=".4" y2="590.8"/>
			<rect class="st6" x="1550.1" y=".4" width="590.3" height="590.3"/>
			<line class="st6" x1="1550.1" x2="2140.4" y1="562.6" y2="562.6"/>
			<line class="st6" x1="1550.1" x2="2140.4" y1="534.5" y2="534.5"/>
			<line class="st6" x1="1550.1" x2="2140.4" y1="506.4" y2="506.4"/>
			<line class="st6" x1="1550.1" x2="2140.4" y1="478.3" y2="478.3"/>
			<line class="st6" x1="1550.1" x2="2140.4" y1="450.2" y2="450.2"/>
			<line class="st6" x1="1550.1" x2="2140.4" y1="422.1" y2="422.1"/>
			<line class="st6" x1="1550.1" x2="2140.4" y1="394" y2="394"/>
			<line class="st6" x1="1550.1" x2="2140.4" y1="365.9" y2="365.9"/>
			<line class="st6" x1="1550.1" x2="2140.4" y1="337.8" y2="337.8"/>
			<line class="st6" x1="1550.1" x2="2140.4" y1="309.6" y2="309.6"/>
			<line class="st6" x1="1550.1" x2="2140.4" y1="281.5" y2="281.5"/>
			<line class="st6" x1="1550.1" x2="2140.4" y1="253.4" y2="253.4"/>
			<line class="st6" x1="1550.1" x2="2140.4" y1="225.3" y2="225.3"/>
			<line class="st6" x1="1550.1" x2="2140.4" y1="197.2" y2="197.2"/>
			<line class="st6" x1="1550.1" x2="2140.4" y1="169.1" y2="169.1"/>
			<line class="st6" x1="1550.1" x2="2140.4" y1="141" y2="141"/>
			<line class="st6" x1="1550.1" x2="2140.4" y1="112.9" y2="112.9"/>
			<line class="st6" x1="1550.1" x2="2140.4" y1="84.8" y2="84.8"/>
			<line class="st6" x1="1550.1" x2="2140.4" y1="56.6" y2="56.6"/>
			<line class="st6" x1="1550.1" x2="2140.4" y1="28.5" y2="28.5"/>
			<line class="st6" x1="2112.3" x2="2112.3" y1=".4" y2="590.8"/>
			<line class="st6" x1="2084.2" x2="2084.2" y1=".4" y2="590.8"/>
			<line class="st6" x1="2056.1" x2="2056.1" y1=".4" y2="590.8"/>
			<line class="st6" x1="2028" x2="2028" y1=".4" y2="590.8"/>
			<line class="st6" x1="1999.8" x2="1999.8" y1=".4" y2="590.8"/>
			<line class="st6" x1="1971.7" x2="1971.7" y1=".4" y2="590.8"/>
			<line class="st6" x1="1943.6" x2="1943.6" y1=".4" y2="590.8"/>
			<line class="st6" x1="1915.5" x2="1915.5" y1=".4" y2="590.8"/>
			<line class="st6" x1="1887.4" x2="1887.4" y1=".4" y2="590.8"/>
			<line class="st6" x1="1859.3" x2="1859.3" y1=".4" y2="590.8"/>
			<line class="st6" x1="1831.2" x2="1831.2" y1=".4" y2="590.8"/>
			<line class="st6" x1="1803.1" x2="1803.1" y1=".4" y2="590.8"/>
			<line class="st6" x1="1775" x2="1775" y1=".4" y2="590.8"/>
			<line class="st6" x1="1746.8" x2="1746.8" y1=".4" y2="590.8"/>
			<line class="st6" x1="1718.7" x2="1718.7" y1=".4" y2="590.8"/>
			<line class="st6" x1="1690.6" x2="1690.6" y1=".4" y2="590.8"/>
			<line class="st6" x1="1662.5" x2="1662.5" y1=".4" y2="590.8"/>
			<line class="st6" x1="1634.4" x2="1634.4" y1=".4" y2="590.8"/>
			<line class="st6" x1="1606.3" x2="1606.3" y1=".4" y2="590.8"/>
			<line class="st6" x1="1578.2" x2="1578.2" y1=".4" y2="590.8"/>
	</g>
	<rect class="st7" x="1772" y="314.6" width="92.8" height="92.8"/>
	<rect class="st8" x="983.9" y="329.2" width="42.7" height="42.7"/>
	<circle class="st9" cx="909.5" cy="76.9" r="59.6"/>
	<circle class="st8" cx="1788.6" cy="494.5" r="35.1"/>
	<circle class="st10" cx="946.8" cy="528" r="41.7"/>
	<circle class="st11" cx="1000.7" cy="145.2" r="24.5"/>
	<ellipse class="st12" cx="836.8" cy="249.4" rx="51.7" ry="31.3"/>
	<polygon class="st13" points="637.4 308.2 600.4 244.1 637.4 179.9 711.5 179.9 748.5 244.1 711.5 308.2"/>
	<polygon class="st14" points="1582.2 573.9 1564 542.3 1582.2 510.8 1618.6 510.8 1636.8 542.3 1618.6 573.9"/>
	<polygon class="st15" points="1147.9 23 1168.5 64.7 1214.5 71.4 1181.2 103.9 1189.1 149.7 1147.9 128.1 1106.8 149.7 1114.6 103.9 1081.3 71.4 1127.4 64.7"/>
	<line class="st16" x1="770.7" x2="878.6" y1="79.5" y2="187.4"/>
	<rect class="st17" x="1307.5" y="20.2" width="162.3" height="57.4"/>
	<rect class="st15" x="1490.9" y="108.3" width="92.8" height="92.8"/>
	<rect class="st8" x="1600.8" y="259.2" width="42.7" height="42.7"/>
	<circle class="st9" cx="1290.9" cy="154.6" r="59.6"/>
	<circle class="st10" cx="1634.4" cy="429.9" r="41.7"/>
	<circle class="st11" cx="1813.1" cy="108.3" r="24.5"/>
	<ellipse class="st12" cx="1457.7" cy="494.5" rx="51.7" ry="31.3"/>
	<polygon class="st13" points="1179.8 594 1142.8 529.9 1179.8 465.8 1253.9 465.8 1290.9 529.9 1253.9 594"/>
	<polygon class="st14" points="1058 217.7 1039.8 186.2 1058 154.6 1094.4 154.6 1112.6 186.2 1094.4 217.7"/>
	<polygon class="st17" points="1191.3 240.8 1211.9 282.5 1257.9 289.2 1224.6 321.7 1232.5 367.5 1191.3 345.9 1150.1 367.5 1158 321.7 1124.7 289.2 1170.7 282.5"/>
	<line class="st16" x1="1716.7" x2="1824.6" y1="132.2" y2="240.2"/>
	<line class="st16" x1="1145" x2="1037.1" y1="409.2" y2="517.2"/>
	<rect class="st17" x="1293.5" y="343.2" width="162.3" height="57.4"/>
	<path class="st18" d="m784 480.1c-18.6-35.1-137.9-57.1-137.9-57.1s-119.3 22-137.9 57.2c-13.7 48.7-25.2 110.7-25.2 110.7h326.2c0-0.1-7.8-66.5-25.2-110.8z"/>
	<path class="st18" d="m646.1 423s119.3 22 137.9 57.2c17.4 44.3 25.2 110.7 25.2 110.7h-163.1v-167.9z"/>
	<rect class="st18" x="613.7" y="351.5" width="65" height="108.7"/>
	<rect class="st18" x="646.1" y="351.5" width="32.5" height="108.7"/>
	<path class="st19" d="m613.7 401.9c5.8 16.8 29.4 26.4 46.7 26.4 6.3 0 12.4-1 18.2-3v-73.8h-65v50.4z"/>
	<path class="st18" d="m729.6 282.9c0-67.9-37.4-106.5-83.5-106.5s-83.5 38.6-83.5 106.5c0 91.3 37.4 123 83.5 123 46.2 0 83.5-35.4 83.5-123z"/>
	<path class="st18" d="m716.9 330c-15.1-1.6-25.4-17.9-22.8-36.4 2.5-18.5 16.9-32.3 32-30.7s25.3 17.9 22.8 36.4c-2.5 18.6-16.8 32.3-32 30.7z"/>
	<path class="st18" d="m543.9 299.3c-2.6-18.5 7.7-34.8 22.8-36.4 15.2-1.6 29.5 12.2 32 30.7 2.6 18.5-7.7 34.8-22.8 36.4s-29.4-12.1-32-30.7z"/>
	<path class="st18" d="m729.6 282.9c0-67.9-37.4-106.5-83.5-106.5v229.5c46.2 0 83.5-35.4 83.5-123z"/>
	<path class="st20" d="m784 480.1c-11.9-22.5-65.1-39.6-101.9-49-1.4 18.7-17 33.4-36 33.4s-34.6-14.7-36-33.4c-36.7 9.4-90 26.5-101.9 49-13.7 48.7-25.2 110.7-25.2 110.7h326.2s-7.8-66.4-25.2-110.7z"/>
	<path class="st21" d="m737.7 181.6c-11.8-18.7-69.1-30.6-127.7-24.3 0 0.3 0 0.6-0.1 0.9-71.2 17.6-66.8 79.6-45.9 112.6 0.4 9.9 1 21.2 1.8 34.6 0 0 10.2-19.6 15.5-57.2l3-5.4c34.2 31.2 74.5 35.5 127.3-1.9 1.3 30.9 10.4 50.2 21 64.5 1.1-9.4 2.2-17.8 3.2-25.5 18.3-33 12.8-81 1.9-98.3z"/>
	<path class="st22" d="m358.8 384.7h-48.2c-25.1 0-45.4 17-45.4 38v13.8c0 21 20.3 38 45.4 38h48.2c25.1 0 45.4-17 45.4-38v-13.8c0-21-20.4-38-45.4-38zm22.6 49.6c0 14.1-13.7 25.5-30.5 25.5h-32.4c-16.9 0-30.5-11.4-30.5-25.5v-9.3c0-14.1 13.7-25.5 30.5-25.5h32.4c16.9 0 30.5 11.4 30.5 25.5v9.3z"/>
			<ellipse class="st23" cx="334.5" cy="233.4" rx="128.4" ry="129.3"/>
			<path class="st18" d="m484.8 468.4c-20.2-38.3-150.2-62.3-150.2-62.3s-130 24-150.2 62.3c-15.1 53.1-27.6 120.6-27.6 120.6h355.4s-8.4-72.4-27.4-120.6z"/>
			<path class="st18" d="m334.5 406.1s130 24 150.2 62.3c19 48.3 27.5 120.6 27.5 120.6h-177.7v-182.9z"/>
			<rect class="st18" x="299.1" y="328.2" width="70.8" height="118.5"/>
			<rect class="st18" x="334.5" y="328.2" width="35.4" height="118.5"/>
			<path class="st19" d="m299.1 383.1c6.4 18.3 32.1 28.8 50.9 28.8 6.8 0 13.5-1.1 19.9-3.2v-80.4h-70.8v54.8z"/>
			<path class="st18" d="m425.5 253.5c0-74-40.8-116.1-91-116.1-50.3 0-91 42.1-91 116.1s40.8 134 91 134c50.3 0 91-60 91-134z"/>
			<path class="st18" d="m406.3 304.8c-16.5-1.7-27.6-19.2-24.8-39.1s18.4-34.6 34.9-32.9 27.6 19.2 24.8 39.1c-2.8 19.8-18.4 34.6-34.9 32.9z"/>
			<path class="st18" d="m228.7 271.9c-2.8-19.9 8.3-37.4 24.8-39.1s32.1 13.1 34.9 32.9c2.8 19.9-8.4 37.4-24.9 39.1-16.4 1.7-32-13.1-34.8-32.9z"/>
			<path class="st18" d="m425.5 253.5c0-74-40.8-116.1-91-116.1v250.1c50.3 0 91-60 91-134z"/>
		<path class="st23" d="m339.8 114.8c-54.4 0-103.7 60.6-103.7 118v0.7h22.5l19.6-38.6-13.1 38.6 23.8-4.5 3.4-33.8v34.1l17.7-1.8 10-35.3 0.2 34.3 24.1-0.7v-30.5l9.1 29.8 29.6-0.4 3.4-22.9 16.6 30.3 30 1.5v-0.7c0-57.6-38.8-118.1-93.2-118.1z"/>
		<path class="st23" d="m429.8 177.4s29.5-64.7 71.8-30.8-30.2 138.4 34.1 131.8c-22.9 24.2-53.9 10.9-56.6-42.4-2.6-53.3-26.7-34.3-26.7-34.3"/>
		<path class="st23" d="m231.1 182.9s-29.5-64.7-71.8-30.8 30.2 138.4-34.1 131.8c22.9 24.2 53.9 10.9 56.6-42.4 2.6-53.3 26.7-34.3 26.7-34.3"/>
		<path class="st24" d="m331.5 156.1c47 0 86 27.1 94 62.8 1-4.4 1.5-8.8 1.5-13.4 0-42.1-42.7-76.2-95.5-76.2-52.7 0-95.5 34.1-95.5 76.2 0 4.6 0.5 9.1 1.5 13.4 8-35.7 47-62.8 94-62.8z"/>
		<path class="st13" d="m484.8 468.4c-5.3-10.1-18.4-19.2-34.6-27.2-25.4 4.7-67.7 7.8-115.7 7.8-47.9 0-90.2-3.1-115.7-7.8-16.2 7.9-29.3 17-34.6 27.2-14.9 53.1-27.4 120.6-27.4 120.6h355.4s-8.4-72.4-27.4-120.6z"/>
		<polygon class="st22" points="267.3 589 245.2 589 245.3 430.2 268 422.6"/>
		<path class="st25" d="m268.3 541.7h-24.8c-1.8 0-3.2-1.4-3.2-3.2v-12c0-1.8 1.4-3.2 3.2-3.2h24.8c1.8 0 3.2 1.4 3.2 3.2v12c0.1 1.7-1.4 3.2-3.2 3.2z"/>
		<path class="st26" d="m264.5 539.3h-17.2c-1.7 0-3.1-1.4-3.1-3.1v-7.6c0-1.7 1.4-3.1 3.1-3.1h17.2c1.7 0 3.1 1.4 3.1 3.1v7.6c0 1.8-1.4 3.1-3.1 3.1z"/>
		<polygon class="st22" points="407.2 590.8 429.4 590.8 429.3 432 406.5 424.4"/>
		<path class="st25" d="m406.2 543.5h24.8c1.8 0 3.2-1.4 3.2-3.2v-12c0-1.8-1.4-3.2-3.2-3.2h-24.8c-1.8 0-3.2 1.4-3.2 3.2v12c0 1.7 1.4 3.2 3.2 3.2z"/>
		<path class="st26" d="m410 541.1h17.2c1.7 0 3.1-1.4 3.1-3.1v-7.6c0-1.7-1.4-3.1-3.1-3.1h-17.2c-1.7 0-3.1 1.4-3.1 3.1v7.6c0.1 1.8 1.4 3.1 3.1 3.1z"/>
	<polygon class="st27" points="1802.3 81 1665.2 324 1539.8 244.6"/>
	<polygon class="st27" points="1570.2 277.3 1516.4 324 1535 251.9"/>
	<polygon class="st28" points="1475.1 234.5 1506.1 320 1522.6 243.2 1796.1 82.3"/>
	<polygon class="st27" points="1364.9 199.2 1467.5 226.5 1792 85"/>
</svg>
